Coordinates
version=1
nRows=12
nColumns=46
inDegrees=yes

Units are S.I. units (second, meters, Newtons, ...)
Angles are in degrees.

endheader
time	pelvis_tilt	pelvis_list	pelvis_rotation	pelvis_tx	pelvis_ty	pelvis_tz	bb_angle	bb_tx	bb_ty	bb_tz	hip_flexion_r	hip_adduction_r	hip_rotation_r	knee_angle_r	knee_angle_r_beta	ankle_angle_r	subtalar_angle_r	mtp_angle_r	crank_angle_r	hip_flexion_l	hip_adduction_l	hip_rotation_l	knee_angle_l	knee_angle_l_beta	ankle_angle_l	subtalar_angle_l	mtp_angle_l	crank_angle_l	lumbar_extension	lumbar_bending	lumbar_rotation	arm_flex_r	arm_add_r	arm_rot_r	elbow_flex_r	pro_sup_r	wrist_flex_r	wrist_dev_r	arm_flex_l	arm_add_l	arm_rot_l	elbow_flex_l	pro_sup_l	wrist_flex_l	wrist_dev_l
      7.50000000	    -12.31830883	     -1.22128398	      3.89592962	      0.04458755	      1.11803256	     -0.27859107	      0.00000000	      0.50000000	      0.00000000	      0.25000000	     73.27133711	     -3.02210771	      5.30333655	    106.99180164	      1.86735921	    -10.32614882	    -12.09103896	      0.00000000	      0.00000000	     49.12915901	     -4.05130249	     -0.47522599	     35.82340851	      0.62523643	    -11.73953403	      0.38405762	      0.00000000	      0.00000000	    -65.33433596	      0.97556087	      0.73617686	     89.52850514	    -28.85164728	     32.96651073	     67.84069186	     35.41113835	      0.00000000	      0.00000000	     89.50031162	    -21.26546162	     33.91857088	     70.92525498	     36.05505167	      0.00000000	      0.00000000
      7.50500000	    -12.05685244	     -1.27878557	      3.19398962	      0.04525714	      1.11890581	     -0.27928624	      0.00000000	      0.50000000	      0.00000000	      0.25000000	     74.55134813	     -2.61344387	      5.57311506	    108.17584460	      1.88802466	    -10.66366495	    -11.82660652	      0.00000000	      0.00000000	     47.21964631	     -4.69866741	     -1.73436325	     33.82112566	      0.59029000	    -13.05507217	      0.92896268	      0.00000000	      0.00000000	    -65.74305894	      0.69345772	      1.34538415	     89.52051921	    -29.07346800	     32.46507901	     68.56837448	     35.45552067	      0.00000000	      0.00000000	     89.49799951	    -21.12106856	     33.85198559	     70.96186134	     36.01770621	      0.00000000	      0.00000000
      7.51000000	    -12.11886499	     -1.79252860	      2.71085965	      0.04562508	      1.11894962	     -0.28054371	      0.00000000	      0.50000000	      0.00000000	      0.25000000	     76.12474689	     -2.26259424	      5.36634239	    109.20435749	      1.90597560	    -10.72543838	    -11.37939217	      0.00000000	      0.00000000	     45.92102226	     -5.42390474	     -2.23757450	     32.19930018	      0.56198380	    -13.90045482	      1.48763101	      0.00000000	      0.00000000	    -65.75620148	      0.93541712	      2.13758129	     89.54055507	    -28.99291509	     32.32327687	     68.87924792	     35.48106362	      0.00000000	      0.00000000	     89.45532934	    -21.22586580	     33.68872723	     70.95799132	     35.99635156	      0.00000000	      0.00000000
      7.51500000	    -11.95990062	     -1.91072207	      2.10841611	      0.04609873	      1.11936051	     -0.28136066	      0.00000000	      0.50000000	      0.00000000	      0.25000000	     77.48723126	     -1.92024016	      5.57087895	    110.20465649	      1.92343411	    -10.79531921	    -10.81168051	      0.00000000	      0.00000000	     44.30237293	     -6.01970274	     -3.44726723	     30.61079231	      0.53425911	    -14.87685703	      2.25363089	      0.00000000	      0.00000000	    -66.01064039	      0.79496298	      2.72367586	     89.54013445	    -29.14128423	     31.95517223	     69.55559794	     35.52660635	      0.00000000	      0.00000000	     89.44147981	    -21.09194743	     33.52072519	     70.97231732	     35.97274211	      0.00000000	      0.00000000
      7.52000000	    -11.97541790	     -2.29549884	      1.60607812	      0.04641937	      1.11927581	     -0.28268384	      0.00000000	      0.50000000	      0.00000000	      0.25000000	     78.98357397	     -1.61969810	      5.47250076	    111.03891748	      1.93799471	    -11.16953502	    -10.04987966	      0.00000000	      0.00000000	     43.03220923	     -6.66604958	     -4.14941472	     29.31435126	      0.51163195	    -15.45948631	      2.86647145	      0.00000000	      0.00000000	    -66.05496818	      0.96290387	      3.40189979	     89.55687622	    -29.11324525	     31.82975750	     69.95029576	     35.56092861	      0.00000000	      0.00000000	     89.39407192	    -21.11546911	     33.35638296	     70.96072223	     35.95813170	      0.00000000	      0.00000000
      7.52500000	    -11.79442811	     -2.32299949	      0.87051981	      0.04691235	      1.11960449	     -0.28322191	      0.00000000	      0.50000000	      0.00000000	      0.25000000	     80.26043454	     -1.09650786	      5.82882057	    111.80810445	      1.95141955	    -10.90156524	     -9.32833731	      0.00000000	      0.00000000	     41.45028632	     -7.28504081	     -5.58970716	     28.06947100	      0.48990469	    -15.93411749	      4.02939374	      0.00000000	      0.00000000	    -66.41138058	      0.65923723	      4.05601233	     89.55521571	    -29.46967206	     31.52986386	     70.99835169	     35.61714799	      0.00000000	      0.00000000	     89.38073254	    -20.92790957	     33.11613820	     70.98760709	     35.94484847	      0.00000000	      0.00000000
      7.53000000	    -11.86091225	     -2.63671661	      0.35318966	      0.04713351	      1.11951140	     -0.28416846	      0.00000000	      0.50000000	      0.00000000	      0.25000000	     81.67626913	     -0.72318131	      5.76734023	    112.34839142	      1.96084934	    -11.02687424	     -8.68255449	      0.00000000	      0.00000000	     40.35822615	     -7.89292928	     -6.38189413	     27.11900172	      0.47331587	    -16.41538463	      4.74423002	      0.00000000	      0.00000000	    -66.43191230	      0.73777546	      4.73513698	     89.56756196	    -29.56661281	     31.52527770	     71.53670910	     35.63344512	      0.00000000	      0.00000000	     89.34673984	    -20.86341738	     32.93452971	     70.95316401	     35.93183713	      0.00000000	      0.00000000
      7.53500000	    -11.95638979	     -2.96013680	     -0.03583546	      0.04708118	      1.11942361	     -0.28501159	      0.00000000	      0.50000000	      0.00000000	      0.25000000	     83.07698383	     -0.44720604	      5.64194427	    112.73350385	      1.96757082	    -11.25059865	     -8.30107506	      0.00000000	      0.00000000	     39.40887021	     -8.35674696	     -6.72320678	     26.34351777	      0.45978112	    -16.65350545	      5.12439654	      0.00000000	      0.00000000	    -66.41018969	      0.92031687	      5.31662024	     89.59129285	    -29.43451108	     31.56197151	     71.79852445	     35.65004333	      0.00000000	      0.00000000	     89.31427136	    -20.93298276	     32.79820626	     70.93813287	     35.92159062	      0.00000000	      0.00000000
      7.54000000	    -11.98883404	     -3.14653450	     -0.74770582	      0.04724398	      1.11943959	     -0.28514075	      0.00000000	      0.50000000	      0.00000000	      0.25000000	     84.34199308	      0.27216474	      5.74551172	    113.02822490	      1.97271467	    -11.25264912	     -7.78635619	      0.00000000	      0.00000000	     38.43956268	     -8.99320644	     -7.65500715	     25.84138980	      0.45101734	    -16.93991675	      5.74417433	      0.00000000	      0.00000000	    -66.53321319	      0.65766376	      5.90886686	     89.58850770	    -29.59580252	     31.58452200	     72.61847631	     35.66173413	      0.00000000	      0.00000000	     89.29903667	    -20.82722459	     32.56480421	     70.94338341	     35.92494448	      0.00000000	      0.00000000
      7.54500000	    -12.11339333	     -3.44281538	     -1.14500646	      0.04702129	      1.11933057	     -0.28575777	      0.00000000	      0.50000000	      0.00000000	      0.25000000	     85.59190535	      0.69633157	      5.64189572	    113.15285644	      1.97488990	    -11.31637368	     -7.56609287	      0.00000000	      0.00000000	     37.78250606	     -9.37341753	     -7.70519824	     25.56415617	      0.44617870	    -17.10156512	      5.59171653	      0.00000000	      0.00000000	    -66.51568139	      0.78734098	      6.40848435	     89.60664611	    -29.41544595	     31.65560042	     72.89904819	     35.67213457	      0.00000000	      0.00000000	     89.28313556	    -20.85609483	     32.45781934	     70.95425520	     35.92506897	      0.00000000	      0.00000000
      7.55000000	    -12.10896495	     -3.57279248	     -1.40049715	      0.04665686	      1.11931015	     -0.28632755	      0.00000000	      0.50000000	      0.00000000	      0.25000000	     86.65767010	      0.92696125	      5.60158932	    113.24489002	      1.97649619	    -11.28137319	     -7.52247437	      0.00000000	      0.00000000	     37.18359279	     -9.52513856	     -7.66203852	     25.62934449	      0.44731645	    -17.20362271	      5.44199690	      0.00000000	      0.00000000	    -66.63410276	      0.87891273	      6.72469249	     89.61764808	    -29.28187633	     31.67972518	     73.01183390	     35.67969398	      0.00000000	      0.00000000	     89.29632589	    -20.90437243	     32.38736750	     70.96751107	     35.92388421	      0.00000000	      0.00000000
      7.55500000	    -12.61715843	     -3.92090336	     -2.12504188	      0.04620560	      1.11910075	     -0.28617242	      0.00000000	      0.50000000	      0.00000000	      0.25000000	     88.00207330	      1.85562463	      5.44269858	    112.90103696	      1.97049482	    -11.10391925	     -7.37988094	      0.00000000	      0.00000000	     37.25927242	    -10.13883945	     -7.79175560	     26.01496815	      0.45404685	    -17.61168451	      4.19935748	      0.00000000	      0.00000000	    -66.32726985	      0.74441106	      7.31786021	     89.62673212	    -28.97829168	     31.63750852	     73.64838991	     35.69339567	      0.00000000	      0.00000000	     89.26828086	    -21.05420875	     32.08750860	     71.10368041	     35.94033908	      0.00000000	      0.00000000
